REM MD5 a13daf80d1194779b0ce299886938b5d
FILE "Tomb Raider (Europe).bin" BINARY
  TRACK 01 MODE2/2352
    INDEX 01 00:00:00
  TRACK 02 AUDIO
    INDEX 00 27:43:33
    INDEX 01 27:45:33
  TRACK 03 AUDIO
    INDEX 00 31:00:01
    INDEX 01 31:02:01
  TRACK 04 AUDIO
    INDEX 00 32:03:74
    INDEX 01 32:05:74
  TRACK 05 AUDIO
    INDEX 00 34:07:38
    INDEX 01 34:09:38
  TRACK 06 AUDIO
    INDEX 00 36:07:49
    INDEX 01 36:09:49
  TRACK 07 AUDIO
    INDEX 00 37:24:48
    INDEX 01 37:26:48
  TRACK 08 AUDIO
    INDEX 00 38:20:39
    INDEX 01 38:22:39
  TRACK 09 AUDIO
    INDEX 00 39:28:58
    INDEX 01 39:30:58
  TRACK 10 AUDIO
    INDEX 00 40:08:64
    INDEX 01 40:10:64
  TRACK 11 AUDIO
    INDEX 00 41:28:10
    INDEX 01 41:30:10
  TRACK 12 AUDIO
    INDEX 00 41:36:47
    INDEX 01 41:38:47
  TRACK 13 AUDIO
    INDEX 00 41:51:46
    INDEX 01 41:53:46
  TRACK 14 AUDIO
    INDEX 00 41:58:49
    INDEX 01 42:00:49
  TRACK 15 AUDIO
    INDEX 00 42:10:54
    INDEX 01 42:12:54
  TRACK 16 AUDIO
    INDEX 00 42:21:57
    INDEX 01 42:23:57
  TRACK 17 AUDIO
    INDEX 00 43:00:45
    INDEX 01 43:02:45
  TRACK 18 AUDIO
    INDEX 00 43:43:34
    INDEX 01 43:45:34
  TRACK 19 AUDIO
    INDEX 00 44:08:58
    INDEX 01 44:10:58
  TRACK 20 AUDIO
    INDEX 00 45:37:28
    INDEX 01 45:39:28
  TRACK 21 AUDIO
    INDEX 00 46:31:45
    INDEX 01 46:33:45
  TRACK 22 AUDIO
    INDEX 00 47:12:62
    INDEX 01 47:14:62
  TRACK 23 AUDIO
    INDEX 00 48:16:25
    INDEX 01 48:18:25
  TRACK 24 AUDIO
    INDEX 00 49:13:69
    INDEX 01 49:15:69
  TRACK 25 AUDIO
    INDEX 00 49:29:22
    INDEX 01 49:31:22
  TRACK 26 AUDIO
    INDEX 00 50:06:10
    INDEX 01 50:08:10
  TRACK 27 AUDIO
    INDEX 00 50:13:11
    INDEX 01 50:15:11
  TRACK 28 AUDIO
    INDEX 00 50:20:12
    INDEX 01 50:22:12
  TRACK 29 AUDIO
    INDEX 00 50:27:12
    INDEX 01 50:29:12
  TRACK 30 AUDIO
    INDEX 00 50:34:13
    INDEX 01 50:36:13
  TRACK 31 AUDIO
    INDEX 00 50:42:11
    INDEX 01 50:44:11
  TRACK 32 AUDIO
    INDEX 00 50:49:12
    INDEX 01 50:51:12
  TRACK 33 AUDIO
    INDEX 00 50:58:50
    INDEX 01 51:00:50
  TRACK 34 AUDIO
    INDEX 00 51:08:17
    INDEX 01 51:10:17
  TRACK 35 AUDIO
    INDEX 00 51:15:64
    INDEX 01 51:17:64
  TRACK 36 AUDIO
    INDEX 00 51:23:03
    INDEX 01 51:25:03
  TRACK 37 AUDIO
    INDEX 00 51:39:74
    INDEX 01 51:41:74
  TRACK 38 AUDIO
    INDEX 00 51:47:00
    INDEX 01 51:49:00
  TRACK 39 AUDIO
    INDEX 00 51:54:01
    INDEX 01 51:56:01
  TRACK 40 AUDIO
    INDEX 00 52:10:07
    INDEX 01 52:12:07
  TRACK 41 AUDIO
    INDEX 00 52:20:47
    INDEX 01 52:22:47
  TRACK 42 AUDIO
    INDEX 00 52:27:48
    INDEX 01 52:29:48
  TRACK 43 AUDIO
    INDEX 00 52:34:48
    INDEX 01 52:36:48
  TRACK 44 AUDIO
    INDEX 00 52:43:61
    INDEX 01 52:45:61
  TRACK 45 AUDIO
    INDEX 00 52:52:10
    INDEX 01 52:54:10
  TRACK 46 AUDIO
    INDEX 00 53:02:01
    INDEX 01 53:04:01
  TRACK 47 AUDIO
    INDEX 00 53:09:02
    INDEX 01 53:11:02
  TRACK 48 AUDIO
    INDEX 00 53:16:03
    INDEX 01 53:18:03
  TRACK 49 AUDIO
    INDEX 00 53:23:04
    INDEX 01 53:25:04
  TRACK 50 AUDIO
    INDEX 00 53:39:00
    INDEX 01 53:41:00
  TRACK 51 AUDIO
    INDEX 00 53:46:00
    INDEX 01 53:48:00
  TRACK 52 AUDIO
    INDEX 00 53:53:00
    INDEX 01 53:55:00
  TRACK 53 AUDIO
    INDEX 00 54:00:01
    INDEX 01 54:02:01
  TRACK 54 AUDIO
    INDEX 00 54:09:21
    INDEX 01 54:11:21
  TRACK 55 AUDIO
    INDEX 00 54:16:22
    INDEX 01 54:18:22
  TRACK 56 AUDIO
    INDEX 00 54:26:01
    INDEX 01 54:28:01
  TRACK 57 AUDIO
    INDEX 00 54:33:02
    INDEX 01 54:35:02
REM LEADOUT 57:52:02
